<svg width="25" height="24" viewBox="0 0 25 24" fill="none" xmlns="http://www.w3.org/2000/svg">
<path d="M21.4973 21L15.627 15L21.4973 21ZM17.5838 10C17.5838 10.9193 17.4066 11.8295 17.0625 12.6788C16.7183 13.5281 16.2138 14.2997 15.5778 14.9497C14.9419 15.5998 14.1869 16.1154 13.356 16.4672C12.5251 16.8189 11.6345 17 10.7351 17C9.83575 17 8.94518 16.8189 8.11426 16.4672C7.28334 16.1154 6.52835 15.5998 5.8924 14.9497C5.25644 14.2997 4.75197 13.5281 4.4078 12.6788C4.06362 11.8295 3.88647 10.9193 3.88647 10C3.88647 8.14348 4.60803 6.36301 5.8924 5.05025C7.17677 3.7375 8.91875 3 10.7351 3C12.5515 3 14.2935 3.7375 15.5778 5.05025C16.8622 6.36301 17.5838 8.14348 17.5838 10Z" stroke="#2D2F30" stroke-width="2" stroke-linecap="round" stroke-linejoin="round"/>
</svg>
