<svg width="142" height="36" viewBox="0 0 142 36" fill="none" xmlns="http://www.w3.org/2000/svg">
<ellipse cx="18.4595" cy="18" rx="17.6108" ry="18" fill="#094B72"/>
<path d="M19.206 21.36H23.686V24H15.786V9.96H19.206V21.36Z" fill="white"/>
<path d="M53.4492 22.36H57.9292V25H50.0292V10.96H53.4492V22.36ZM60.3804 19.4C60.3804 18.2533 60.5938 17.2467 61.0204 16.38C61.4604 15.5133 62.0538 14.8467 62.8004 14.38C63.5471 13.9133 64.3804 13.68 65.3004 13.68C66.0871 13.68 66.7738 13.84 67.3604 14.16C67.9604 14.48 68.4204 14.9 68.7404 15.42V13.84H72.1604V25H68.7404V23.42C68.4071 23.94 67.9404 24.36 67.3404 24.68C66.7538 25 66.0671 25.16 65.2804 25.16C64.3738 25.16 63.5471 24.9267 62.8004 24.46C62.0538 23.98 61.4604 23.3067 61.0204 22.44C60.5938 21.56 60.3804 20.5467 60.3804 19.4ZM68.7404 19.42C68.7404 18.5667 68.5004 17.8933 68.0204 17.4C67.5538 16.9067 66.9804 16.66 66.3004 16.66C65.6204 16.66 65.0404 16.9067 64.5604 17.4C64.0938 17.88 63.8604 18.5467 63.8604 19.4C63.8604 20.2533 64.0938 20.9333 64.5604 21.44C65.0404 21.9333 65.6204 22.18 66.3004 22.18C66.9804 22.18 67.5538 21.9333 68.0204 21.44C68.5004 20.9467 68.7404 20.2733 68.7404 19.42ZM92.1547 13.84L89.1347 25H85.3547L83.5947 17.76L81.7747 25H78.0147L74.9747 13.84H78.3947L79.9747 21.82L81.8547 13.84H85.4747L87.3747 21.78L88.9347 13.84H92.1547ZM98.3789 10.2V25H94.9589V10.2H98.3789ZM104.077 12.68C103.477 12.68 102.984 12.5067 102.597 12.16C102.224 11.8 102.037 11.36 102.037 10.84C102.037 10.3067 102.224 9.86667 102.597 9.52C102.984 9.16 103.477 8.98 104.077 8.98C104.664 8.98 105.144 9.16 105.517 9.52C105.904 9.86667 106.097 10.3067 106.097 10.84C106.097 11.36 105.904 11.8 105.517 12.16C105.144 12.5067 104.664 12.68 104.077 12.68ZM105.777 13.84V25H102.357V13.84H105.777ZM120.276 19.24C120.276 19.56 120.256 19.8933 120.216 20.24H112.476C112.529 20.9333 112.749 21.4667 113.136 21.84C113.536 22.2 114.022 22.38 114.596 22.38C115.449 22.38 116.042 22.02 116.376 21.3H120.016C119.829 22.0333 119.489 22.6933 118.996 23.28C118.516 23.8667 117.909 24.3267 117.176 24.66C116.442 24.9933 115.622 25.16 114.716 25.16C113.622 25.16 112.649 24.9267 111.796 24.46C110.942 23.9933 110.276 23.3267 109.796 22.46C109.316 21.5933 109.076 20.58 109.076 19.42C109.076 18.26 109.309 17.2467 109.776 16.38C110.256 15.5133 110.922 14.8467 111.776 14.38C112.629 13.9133 113.609 13.68 114.716 13.68C115.796 13.68 116.756 13.9067 117.596 14.36C118.436 14.8133 119.089 15.46 119.556 16.3C120.036 17.14 120.276 18.12 120.276 19.24ZM116.776 18.34C116.776 17.7533 116.576 17.2867 116.176 16.94C115.776 16.5933 115.276 16.42 114.676 16.42C114.102 16.42 113.616 16.5867 113.216 16.92C112.829 17.2533 112.589 17.7267 112.496 18.34H116.776ZM129.8 22.1V25H128.06C126.82 25 125.853 24.7 125.16 24.1C124.467 23.4867 124.12 22.4933 124.12 21.12V16.68H122.76V13.84H124.12V11.12H127.54V13.84H129.78V16.68H127.54V21.16C127.54 21.4933 127.62 21.7333 127.78 21.88C127.94 22.0267 128.207 22.1 128.58 22.1H129.8Z" fill="#2D2F30"/>
</svg>
